<svg xmlns="http://www.w3.org/2000/svg" xmlns:xlink="http://www.w3.org/1999/xlink" width="165" zoomAndPan="magnify" viewBox="0 0 123.75 30.000001" height="40" preserveAspectRatio="xMidYMid meet" version="1.0"><defs><g/><clipPath id="2637e7f3f9"><path d="M 1.875 0 L 121.632812 0 L 121.632812 29.03125 L 1.875 29.03125 Z M 1.875 0 " clip-rule="nonzero"/></clipPath><clipPath id="62cee4b3c1"><path d="M 23.136719 0.730469 L 46.351562 0.730469 L 46.351562 28.3125 L 23.136719 28.3125 Z M 23.136719 0.730469 " clip-rule="nonzero"/></clipPath><clipPath id="9318411b0c"><path d="M 35 0.730469 L 46.351562 0.730469 L 46.351562 12 L 35 12 Z M 35 0.730469 " clip-rule="nonzero"/></clipPath></defs><g clip-path="url(#2637e7f3f9)"><path fill="#ffffff" d="M 1.875 0 L 121.632812 0 L 121.632812 29.03125 L 1.875 29.03125 Z M 1.875 0 " fill-opacity="1" fill-rule="nonzero"/><path fill="#ffffff" d="M 1.875 0 L 121.632812 0 L 121.632812 29.03125 L 1.875 29.03125 Z M 1.875 0 " fill-opacity="1" fill-rule="nonzero"/></g><g fill="#4f4d5e" fill-opacity="1"><g transform="translate(50.133597, 14.800592)"><g><path d="M 5.09375 -3.953125 C 5.09375 -4.628906 5.003906 -5.109375 4.828125 -5.390625 C 4.648438 -5.679688 4.347656 -5.828125 3.921875 -5.828125 C 3.796875 -5.828125 3.660156 -5.816406 3.515625 -5.796875 C 3.367188 -5.785156 3.234375 -5.769531 3.109375 -5.75 L 3.109375 0 L 0.984375 0 L 0.984375 -7.203125 C 1.171875 -7.242188 1.382812 -7.289062 1.625 -7.34375 C 1.863281 -7.394531 2.117188 -7.441406 2.390625 -7.484375 C 2.660156 -7.523438 2.9375 -7.554688 3.21875 -7.578125 C 3.5 -7.609375 3.773438 -7.625 4.046875 -7.625 C 4.585938 -7.625 5.023438 -7.554688 5.359375 -7.421875 C 5.691406 -7.285156 5.96875 -7.125 6.1875 -6.9375 C 6.488281 -7.144531 6.835938 -7.3125 7.234375 -7.4375 C 7.628906 -7.5625 7.988281 -7.625 8.3125 -7.625 C 8.914062 -7.625 9.40625 -7.539062 9.78125 -7.375 C 10.164062 -7.207031 10.472656 -6.972656 10.703125 -6.671875 C 10.929688 -6.367188 11.085938 -6.007812 11.171875 -5.59375 C 11.253906 -5.175781 11.296875 -4.710938 11.296875 -4.203125 L 11.296875 0 L 9.1875 0 L 9.1875 -3.953125 C 9.1875 -4.628906 9.097656 -5.109375 8.921875 -5.390625 C 8.742188 -5.679688 8.441406 -5.828125 8.015625 -5.828125 C 7.898438 -5.828125 7.738281 -5.796875 7.53125 -5.734375 C 7.332031 -5.679688 7.171875 -5.613281 7.046875 -5.53125 C 7.109375 -5.3125 7.148438 -5.082031 7.171875 -4.84375 C 7.191406 -4.601562 7.203125 -4.34375 7.203125 -4.0625 L 7.203125 0 L 5.09375 0 Z M 5.09375 -3.953125 "/></g></g></g><g fill="#4f4d5e" fill-opacity="1"><g transform="translate(62.352491, 14.800592)"><g><path d="M 3.109375 0 L 0.984375 0 L 0.984375 -7.453125 L 3.109375 -7.453125 Z M 3.296875 -9.609375 C 3.296875 -9.222656 3.171875 -8.914062 2.921875 -8.6875 C 2.671875 -8.46875 2.378906 -8.359375 2.046875 -8.359375 C 1.703125 -8.359375 1.40625 -8.46875 1.15625 -8.6875 C 0.90625 -8.914062 0.78125 -9.222656 0.78125 -9.609375 C 0.78125 -9.992188 0.90625 -10.296875 1.15625 -10.515625 C 1.40625 -10.742188 1.703125 -10.859375 2.046875 -10.859375 C 2.378906 -10.859375 2.671875 -10.742188 2.921875 -10.515625 C 3.171875 -10.296875 3.296875 -9.992188 3.296875 -9.609375 Z M 3.296875 -9.609375 "/></g></g></g><g fill="#4f4d5e" fill-opacity="1"><g transform="translate(66.449081, 14.800592)"><g><path d="M 0.984375 -7.203125 C 1.347656 -7.304688 1.8125 -7.398438 2.375 -7.484375 C 2.945312 -7.578125 3.546875 -7.625 4.171875 -7.625 C 4.796875 -7.625 5.316406 -7.539062 5.734375 -7.375 C 6.160156 -7.207031 6.492188 -6.972656 6.734375 -6.671875 C 6.984375 -6.367188 7.160156 -6.007812 7.265625 -5.59375 C 7.367188 -5.175781 7.421875 -4.710938 7.421875 -4.203125 L 7.421875 0 L 5.3125 0 L 5.3125 -3.953125 C 5.3125 -4.628906 5.222656 -5.109375 5.046875 -5.390625 C 4.867188 -5.679688 4.53125 -5.828125 4.03125 -5.828125 C 3.882812 -5.828125 3.722656 -5.816406 3.546875 -5.796875 C 3.378906 -5.785156 3.234375 -5.769531 3.109375 -5.75 L 3.109375 0 L 0.984375 0 Z M 0.984375 -7.203125 "/></g></g></g><g fill="#4f4d5e" fill-opacity="1"><g transform="translate(74.798189, 14.800592)"><g><path d="M 2.796875 -3.78125 C 2.796875 -3.132812 2.941406 -2.609375 3.234375 -2.203125 C 3.523438 -1.804688 3.957031 -1.609375 4.53125 -1.609375 C 4.71875 -1.609375 4.890625 -1.613281 5.046875 -1.625 C 5.210938 -1.644531 5.347656 -1.664062 5.453125 -1.6875 L 5.453125 -5.53125 C 5.316406 -5.613281 5.144531 -5.679688 4.9375 -5.734375 C 4.726562 -5.796875 4.515625 -5.828125 4.296875 -5.828125 C 3.296875 -5.828125 2.796875 -5.144531 2.796875 -3.78125 Z M 7.5625 -0.234375 C 7.375 -0.179688 7.15625 -0.128906 6.90625 -0.078125 C 6.664062 -0.0234375 6.410156 0.015625 6.140625 0.046875 C 5.867188 0.0859375 5.59375 0.117188 5.3125 0.140625 C 5.039062 0.171875 4.773438 0.1875 4.515625 0.1875 C 3.898438 0.1875 3.351562 0.0976562 2.875 -0.078125 C 2.394531 -0.265625 1.988281 -0.523438 1.65625 -0.859375 C 1.320312 -1.191406 1.066406 -1.597656 0.890625 -2.078125 C 0.722656 -2.554688 0.640625 -3.09375 0.640625 -3.6875 C 0.640625 -4.289062 0.710938 -4.832031 0.859375 -5.3125 C 1.015625 -5.800781 1.234375 -6.21875 1.515625 -6.5625 C 1.796875 -6.90625 2.140625 -7.164062 2.546875 -7.34375 C 2.960938 -7.519531 3.4375 -7.609375 3.96875 -7.609375 C 4.257812 -7.609375 4.519531 -7.578125 4.75 -7.515625 C 4.988281 -7.460938 5.222656 -7.382812 5.453125 -7.28125 L 5.453125 -10.65625 L 7.5625 -11 Z M 7.5625 -0.234375 "/></g></g></g><g fill="#4f4d5e" fill-opacity="1"><g transform="translate(83.359919, 14.800592)"><g><path d="M 0.640625 -3.671875 C 0.640625 -4.328125 0.738281 -4.90625 0.9375 -5.40625 C 1.144531 -5.90625 1.410156 -6.316406 1.734375 -6.640625 C 2.066406 -6.972656 2.445312 -7.222656 2.875 -7.390625 C 3.3125 -7.566406 3.753906 -7.65625 4.203125 -7.65625 C 5.265625 -7.65625 6.101562 -7.332031 6.71875 -6.6875 C 7.332031 -6.039062 7.640625 -5.085938 7.640625 -3.828125 C 7.640625 -3.703125 7.632812 -3.566406 7.625 -3.421875 C 7.613281 -3.273438 7.601562 -3.144531 7.59375 -3.03125 L 2.8125 -3.03125 C 2.851562 -2.59375 3.050781 -2.242188 3.40625 -1.984375 C 3.769531 -1.734375 4.253906 -1.609375 4.859375 -1.609375 C 5.242188 -1.609375 5.625 -1.644531 6 -1.71875 C 6.375 -1.789062 6.679688 -1.878906 6.921875 -1.984375 L 7.203125 -0.265625 C 7.085938 -0.210938 6.9375 -0.15625 6.75 -0.09375 C 6.5625 -0.0390625 6.347656 0.00390625 6.109375 0.046875 C 5.878906 0.0859375 5.628906 0.125 5.359375 0.15625 C 5.097656 0.1875 4.835938 0.203125 4.578125 0.203125 C 3.910156 0.203125 3.328125 0.101562 2.828125 -0.09375 C 2.328125 -0.289062 1.914062 -0.5625 1.59375 -0.90625 C 1.269531 -1.257812 1.03125 -1.671875 0.875 -2.140625 C 0.71875 -2.609375 0.640625 -3.117188 0.640625 -3.671875 Z M 5.59375 -4.484375 C 5.582031 -4.660156 5.550781 -4.832031 5.5 -5 C 5.445312 -5.164062 5.367188 -5.316406 5.265625 -5.453125 C 5.160156 -5.585938 5.023438 -5.695312 4.859375 -5.78125 C 4.691406 -5.863281 4.484375 -5.90625 4.234375 -5.90625 C 4.003906 -5.90625 3.800781 -5.863281 3.625 -5.78125 C 3.457031 -5.707031 3.316406 -5.601562 3.203125 -5.46875 C 3.085938 -5.332031 3 -5.175781 2.9375 -5 C 2.875 -4.832031 2.832031 -4.660156 2.8125 -4.484375 Z M 5.59375 -4.484375 "/></g></g></g><g fill="#4f4d5e" fill-opacity="1"><g transform="translate(91.63815, 14.800592)"><g><path d="M 5.484375 -5.578125 C 5.296875 -5.628906 5.070312 -5.679688 4.8125 -5.734375 C 4.5625 -5.785156 4.289062 -5.8125 4 -5.8125 C 3.863281 -5.8125 3.703125 -5.796875 3.515625 -5.765625 C 3.335938 -5.742188 3.203125 -5.722656 3.109375 -5.703125 L 3.109375 0 L 0.984375 0 L 0.984375 -7.0625 C 1.367188 -7.1875 1.816406 -7.304688 2.328125 -7.421875 C 2.847656 -7.546875 3.421875 -7.609375 4.046875 -7.609375 C 4.160156 -7.609375 4.296875 -7.597656 4.453125 -7.578125 C 4.617188 -7.566406 4.78125 -7.550781 4.9375 -7.53125 C 5.101562 -7.507812 5.265625 -7.476562 5.421875 -7.4375 C 5.585938 -7.40625 5.726562 -7.367188 5.84375 -7.328125 Z M 5.484375 -5.578125 "/></g></g></g><g fill="#0ba68b" fill-opacity="1"><g transform="translate(48.522227, 18.906324)"><g><path d="M 1.15625 0.046875 C 0.820312 0.046875 0.566406 -0.0390625 0.390625 -0.21875 C 0.222656 -0.40625 0.140625 -0.671875 0.140625 -1.015625 C 0.140625 -1.179688 0.164062 -1.328125 0.21875 -1.453125 C 0.269531 -1.585938 0.34375 -1.695312 0.4375 -1.78125 C 0.53125 -1.875 0.640625 -1.941406 0.765625 -1.984375 C 0.890625 -2.035156 1.023438 -2.0625 1.171875 -2.0625 C 1.253906 -2.0625 1.332031 -2.050781 1.40625 -2.03125 C 1.476562 -2.019531 1.539062 -2.003906 1.59375 -1.984375 C 1.644531 -1.972656 1.6875 -1.957031 1.71875 -1.9375 C 1.75 -1.925781 1.773438 -1.914062 1.796875 -1.90625 L 1.671875 -1.546875 C 1.609375 -1.578125 1.535156 -1.601562 1.453125 -1.625 C 1.367188 -1.644531 1.273438 -1.65625 1.171875 -1.65625 C 1.097656 -1.65625 1.023438 -1.644531 0.953125 -1.625 C 0.890625 -1.601562 0.832031 -1.566406 0.78125 -1.515625 C 0.726562 -1.460938 0.6875 -1.394531 0.65625 -1.3125 C 0.625 -1.226562 0.609375 -1.128906 0.609375 -1.015625 C 0.609375 -0.921875 0.617188 -0.832031 0.640625 -0.75 C 0.660156 -0.675781 0.691406 -0.609375 0.734375 -0.546875 C 0.785156 -0.492188 0.847656 -0.445312 0.921875 -0.40625 C 0.992188 -0.375 1.082031 -0.359375 1.1875 -0.359375 C 1.257812 -0.359375 1.320312 -0.363281 1.375 -0.375 C 1.425781 -0.382812 1.46875 -0.394531 1.5 -0.40625 C 1.539062 -0.414062 1.578125 -0.425781 1.609375 -0.4375 C 1.640625 -0.445312 1.671875 -0.457031 1.703125 -0.46875 L 1.828125 -0.109375 C 1.765625 -0.0664062 1.671875 -0.03125 1.546875 0 C 1.429688 0.03125 1.300781 0.046875 1.15625 0.046875 Z M 1.15625 0.046875 "/></g></g></g><g fill="#0ba68b" fill-opacity="1"><g transform="translate(52.734795, 18.906324)"><g><path d="M 1.453125 -2.015625 L 1.90625 -2.015625 L 1.90625 0 L 1.453125 0 L 1.453125 -0.859375 L 0.6875 -0.859375 L 0.6875 0 L 0.234375 0 L 0.234375 -2.015625 L 0.6875 -2.015625 L 0.6875 -1.25 L 1.453125 -1.25 Z M 1.453125 -2.015625 "/></g></g></g><g fill="#0ba68b" fill-opacity="1"><g transform="translate(57.19743, 18.906324)"><g><path d="M 1.578125 0 C 1.554688 -0.0703125 1.53125 -0.144531 1.5 -0.21875 C 1.476562 -0.289062 1.457031 -0.363281 1.4375 -0.4375 L 0.640625 -0.4375 C 0.617188 -0.363281 0.59375 -0.289062 0.5625 -0.21875 C 0.539062 -0.144531 0.519531 -0.0703125 0.5 0 L 0.03125 0 C 0.101562 -0.21875 0.171875 -0.414062 0.234375 -0.59375 C 0.304688 -0.78125 0.375 -0.953125 0.4375 -1.109375 C 0.507812 -1.273438 0.578125 -1.429688 0.640625 -1.578125 C 0.703125 -1.734375 0.765625 -1.878906 0.828125 -2.015625 L 1.265625 -2.015625 C 1.328125 -1.878906 1.390625 -1.734375 1.453125 -1.578125 C 1.523438 -1.429688 1.59375 -1.273438 1.65625 -1.109375 C 1.71875 -0.953125 1.78125 -0.78125 1.84375 -0.59375 C 1.914062 -0.414062 1.988281 -0.21875 2.0625 0 Z M 1.03125 -1.5625 C 1.019531 -1.53125 1.003906 -1.488281 0.984375 -1.4375 C 0.972656 -1.382812 0.953125 -1.328125 0.921875 -1.265625 C 0.898438 -1.203125 0.875 -1.128906 0.84375 -1.046875 C 0.8125 -0.960938 0.78125 -0.878906 0.75 -0.796875 L 1.328125 -0.796875 C 1.296875 -0.878906 1.265625 -0.960938 1.234375 -1.046875 C 1.203125 -1.128906 1.171875 -1.203125 1.140625 -1.265625 C 1.117188 -1.328125 1.097656 -1.382812 1.078125 -1.4375 C 1.066406 -1.488281 1.050781 -1.53125 1.03125 -1.5625 Z M 1.03125 -1.5625 "/></g></g></g><g fill="#0ba68b" fill-opacity="1"><g transform="translate(61.622267, 18.906324)"><g><path d="M 1.71875 -2.015625 L 1.71875 -1.625 L 1.125 -1.625 L 1.125 0 L 0.671875 0 L 0.671875 -1.625 L 0.0625 -1.625 L 0.0625 -2.015625 Z M 1.71875 -2.015625 "/></g></g></g><g fill="#0ba68b" fill-opacity="1"><g transform="translate(65.735968, 18.906324)"><g/></g></g><g fill="#0ba68b" fill-opacity="1"><g transform="translate(68.762154, 18.906324)"><g><path d="M 0.109375 -0.53125 C 0.109375 -0.601562 0.117188 -0.671875 0.140625 -0.734375 C 0.160156 -0.796875 0.1875 -0.847656 0.21875 -0.890625 C 0.25 -0.941406 0.289062 -0.988281 0.34375 -1.03125 C 0.394531 -1.070312 0.445312 -1.109375 0.5 -1.140625 C 0.445312 -1.191406 0.398438 -1.25 0.359375 -1.3125 C 0.328125 -1.375 0.3125 -1.445312 0.3125 -1.53125 C 0.3125 -1.695312 0.363281 -1.828125 0.46875 -1.921875 C 0.570312 -2.015625 0.710938 -2.0625 0.890625 -2.0625 C 0.984375 -2.0625 1.0625 -2.046875 1.125 -2.015625 C 1.195312 -1.992188 1.253906 -1.960938 1.296875 -1.921875 C 1.347656 -1.878906 1.382812 -1.832031 1.40625 -1.78125 C 1.425781 -1.726562 1.4375 -1.664062 1.4375 -1.59375 C 1.4375 -1.476562 1.398438 -1.375 1.328125 -1.28125 C 1.265625 -1.1875 1.179688 -1.113281 1.078125 -1.0625 L 1.40625 -0.734375 C 1.425781 -0.765625 1.441406 -0.8125 1.453125 -0.875 C 1.472656 -0.9375 1.484375 -0.988281 1.484375 -1.03125 L 1.84375 -0.984375 C 1.84375 -0.953125 1.835938 -0.910156 1.828125 -0.859375 C 1.816406 -0.816406 1.800781 -0.773438 1.78125 -0.734375 C 1.769531 -0.691406 1.753906 -0.644531 1.734375 -0.59375 C 1.722656 -0.550781 1.707031 -0.515625 1.6875 -0.484375 C 1.75 -0.410156 1.804688 -0.332031 1.859375 -0.25 C 1.921875 -0.164062 1.972656 -0.0820312 2.015625 0 L 1.578125 0 C 1.554688 -0.0195312 1.53125 -0.0507812 1.5 -0.09375 C 1.476562 -0.132812 1.457031 -0.164062 1.4375 -0.1875 C 1.351562 -0.125 1.257812 -0.0703125 1.15625 -0.03125 C 1.050781 0.0078125 0.9375 0.03125 0.8125 0.03125 C 0.675781 0.03125 0.5625 0.015625 0.46875 -0.015625 C 0.382812 -0.0546875 0.3125 -0.101562 0.25 -0.15625 C 0.195312 -0.207031 0.160156 -0.265625 0.140625 -0.328125 C 0.117188 -0.398438 0.109375 -0.46875 0.109375 -0.53125 Z M 0.5 -0.578125 C 0.5 -0.546875 0.503906 -0.515625 0.515625 -0.484375 C 0.535156 -0.453125 0.554688 -0.421875 0.578125 -0.390625 C 0.609375 -0.367188 0.640625 -0.347656 0.671875 -0.328125 C 0.710938 -0.316406 0.765625 -0.3125 0.828125 -0.3125 C 0.910156 -0.3125 0.984375 -0.320312 1.046875 -0.34375 C 1.109375 -0.363281 1.15625 -0.394531 1.1875 -0.4375 L 0.734375 -0.890625 C 0.703125 -0.878906 0.671875 -0.863281 0.640625 -0.84375 C 0.617188 -0.820312 0.597656 -0.796875 0.578125 -0.765625 C 0.554688 -0.742188 0.535156 -0.71875 0.515625 -0.6875 C 0.503906 -0.65625 0.5 -0.617188 0.5 -0.578125 Z M 1.0625 -1.578125 C 1.0625 -1.617188 1.046875 -1.65625 1.015625 -1.6875 C 0.992188 -1.726562 0.945312 -1.75 0.875 -1.75 C 0.8125 -1.75 0.765625 -1.726562 0.734375 -1.6875 C 0.703125 -1.65625 0.6875 -1.609375 0.6875 -1.546875 C 0.6875 -1.492188 0.695312 -1.441406 0.71875 -1.390625 C 0.75 -1.347656 0.789062 -1.304688 0.84375 -1.265625 C 0.90625 -1.296875 0.957031 -1.335938 1 -1.390625 C 1.039062 -1.441406 1.0625 -1.503906 1.0625 -1.578125 Z M 1.0625 -1.578125 "/></g></g></g><g fill="#0ba68b" fill-opacity="1"><g transform="translate(73.140465, 18.906324)"><g/></g></g><g fill="#0ba68b" fill-opacity="1"><g transform="translate(76.166651, 18.906324)"><g><path d="M 1.15625 0.046875 C 0.820312 0.046875 0.566406 -0.0390625 0.390625 -0.21875 C 0.222656 -0.40625 0.140625 -0.671875 0.140625 -1.015625 C 0.140625 -1.179688 0.164062 -1.328125 0.21875 -1.453125 C 0.269531 -1.585938 0.34375 -1.695312 0.4375 -1.78125 C 0.53125 -1.875 0.640625 -1.941406 0.765625 -1.984375 C 0.890625 -2.035156 1.023438 -2.0625 1.171875 -2.0625 C 1.253906 -2.0625 1.332031 -2.050781 1.40625 -2.03125 C 1.476562 -2.019531 1.539062 -2.003906 1.59375 -1.984375 C 1.644531 -1.972656 1.6875 -1.957031 1.71875 -1.9375 C 1.75 -1.925781 1.773438 -1.914062 1.796875 -1.90625 L 1.671875 -1.546875 C 1.609375 -1.578125 1.535156 -1.601562 1.453125 -1.625 C 1.367188 -1.644531 1.273438 -1.65625 1.171875 -1.65625 C 1.097656 -1.65625 1.023438 -1.644531 0.953125 -1.625 C 0.890625 -1.601562 0.832031 -1.566406 0.78125 -1.515625 C 0.726562 -1.460938 0.6875 -1.394531 0.65625 -1.3125 C 0.625 -1.226562 0.609375 -1.128906 0.609375 -1.015625 C 0.609375 -0.921875 0.617188 -0.832031 0.640625 -0.75 C 0.660156 -0.675781 0.691406 -0.609375 0.734375 -0.546875 C 0.785156 -0.492188 0.847656 -0.445312 0.921875 -0.40625 C 0.992188 -0.375 1.082031 -0.359375 1.1875 -0.359375 C 1.257812 -0.359375 1.320312 -0.363281 1.375 -0.375 C 1.425781 -0.382812 1.46875 -0.394531 1.5 -0.40625 C 1.539062 -0.414062 1.578125 -0.425781 1.609375 -0.4375 C 1.640625 -0.445312 1.671875 -0.457031 1.703125 -0.46875 L 1.828125 -0.109375 C 1.765625 -0.0664062 1.671875 -0.03125 1.546875 0 C 1.429688 0.03125 1.300781 0.046875 1.15625 0.046875 Z M 1.15625 0.046875 "/></g></g></g><g fill="#0ba68b" fill-opacity="1"><g transform="translate(80.37922, 18.906324)"><g><path d="M 0.609375 -1.015625 C 0.609375 -0.910156 0.617188 -0.816406 0.640625 -0.734375 C 0.671875 -0.660156 0.707031 -0.59375 0.75 -0.53125 C 0.800781 -0.476562 0.859375 -0.4375 0.921875 -0.40625 C 0.984375 -0.375 1.054688 -0.359375 1.140625 -0.359375 C 1.222656 -0.359375 1.296875 -0.375 1.359375 -0.40625 C 1.429688 -0.4375 1.488281 -0.476562 1.53125 -0.53125 C 1.582031 -0.59375 1.617188 -0.660156 1.640625 -0.734375 C 1.671875 -0.816406 1.6875 -0.910156 1.6875 -1.015625 C 1.6875 -1.109375 1.671875 -1.191406 1.640625 -1.265625 C 1.617188 -1.347656 1.582031 -1.414062 1.53125 -1.46875 C 1.488281 -1.53125 1.429688 -1.578125 1.359375 -1.609375 C 1.296875 -1.640625 1.222656 -1.65625 1.140625 -1.65625 C 1.054688 -1.65625 0.984375 -1.640625 0.921875 -1.609375 C 0.859375 -1.578125 0.800781 -1.53125 0.75 -1.46875 C 0.707031 -1.414062 0.671875 -1.347656 0.640625 -1.265625 C 0.617188 -1.191406 0.609375 -1.109375 0.609375 -1.015625 Z M 2.15625 -1.015625 C 2.15625 -0.835938 2.128906 -0.679688 2.078125 -0.546875 C 2.023438 -0.421875 1.953125 -0.3125 1.859375 -0.21875 C 1.773438 -0.132812 1.671875 -0.0664062 1.546875 -0.015625 C 1.421875 0.0234375 1.285156 0.046875 1.140625 0.046875 C 1.003906 0.046875 0.875 0.0234375 0.75 -0.015625 C 0.632812 -0.0664062 0.53125 -0.132812 0.4375 -0.21875 C 0.34375 -0.3125 0.269531 -0.421875 0.21875 -0.546875 C 0.164062 -0.679688 0.140625 -0.835938 0.140625 -1.015625 C 0.140625 -1.179688 0.164062 -1.328125 0.21875 -1.453125 C 0.28125 -1.585938 0.351562 -1.695312 0.4375 -1.78125 C 0.53125 -1.875 0.640625 -1.941406 0.765625 -1.984375 C 0.890625 -2.035156 1.015625 -2.0625 1.140625 -2.0625 C 1.285156 -2.0625 1.414062 -2.035156 1.53125 -1.984375 C 1.65625 -1.941406 1.765625 -1.875 1.859375 -1.78125 C 1.953125 -1.695312 2.023438 -1.585938 2.078125 -1.453125 C 2.128906 -1.328125 2.15625 -1.179688 2.15625 -1.015625 Z M 2.15625 -1.015625 "/></g></g></g><g fill="#0ba68b" fill-opacity="1"><g transform="translate(85.004696, 18.906324)"><g><path d="M 1.578125 0 C 1.453125 -0.226562 1.3125 -0.453125 1.15625 -0.671875 C 1.007812 -0.898438 0.851562 -1.113281 0.6875 -1.3125 L 0.6875 0 L 0.234375 0 L 0.234375 -2.015625 L 0.609375 -2.015625 C 0.671875 -1.953125 0.738281 -1.875 0.8125 -1.78125 C 0.894531 -1.6875 0.972656 -1.585938 1.046875 -1.484375 C 1.128906 -1.378906 1.207031 -1.269531 1.28125 -1.15625 C 1.363281 -1.039062 1.441406 -0.929688 1.515625 -0.828125 L 1.515625 -2.015625 L 1.96875 -2.015625 L 1.96875 0 Z M 1.578125 0 "/></g></g></g><g fill="#0ba68b" fill-opacity="1"><g transform="translate(89.531305, 18.906324)"><g><path d="M 1.578125 0 C 1.453125 -0.226562 1.3125 -0.453125 1.15625 -0.671875 C 1.007812 -0.898438 0.851562 -1.113281 0.6875 -1.3125 L 0.6875 0 L 0.234375 0 L 0.234375 -2.015625 L 0.609375 -2.015625 C 0.671875 -1.953125 0.738281 -1.875 0.8125 -1.78125 C 0.894531 -1.6875 0.972656 -1.585938 1.046875 -1.484375 C 1.128906 -1.378906 1.207031 -1.269531 1.28125 -1.15625 C 1.363281 -1.039062 1.441406 -0.929688 1.515625 -0.828125 L 1.515625 -2.015625 L 1.96875 -2.015625 L 1.96875 0 Z M 1.578125 0 "/></g></g></g><g fill="#0ba68b" fill-opacity="1"><g transform="translate(94.057914, 18.906324)"><g><path d="M 0.234375 0 L 0.234375 -2.015625 L 1.59375 -2.015625 L 1.59375 -1.640625 L 0.6875 -1.640625 L 0.6875 -1.234375 L 1.484375 -1.234375 L 1.484375 -0.859375 L 0.6875 -0.859375 L 0.6875 -0.375 L 1.65625 -0.375 L 1.65625 0 Z M 0.234375 0 "/></g></g></g><g fill="#0ba68b" fill-opacity="1"><g transform="translate(98.148353, 18.906324)"><g><path d="M 1.15625 0.046875 C 0.820312 0.046875 0.566406 -0.0390625 0.390625 -0.21875 C 0.222656 -0.40625 0.140625 -0.671875 0.140625 -1.015625 C 0.140625 -1.179688 0.164062 -1.328125 0.21875 -1.453125 C 0.269531 -1.585938 0.34375 -1.695312 0.4375 -1.78125 C 0.53125 -1.875 0.640625 -1.941406 0.765625 -1.984375 C 0.890625 -2.035156 1.023438 -2.0625 1.171875 -2.0625 C 1.253906 -2.0625 1.332031 -2.050781 1.40625 -2.03125 C 1.476562 -2.019531 1.539062 -2.003906 1.59375 -1.984375 C 1.644531 -1.972656 1.6875 -1.957031 1.71875 -1.9375 C 1.75 -1.925781 1.773438 -1.914062 1.796875 -1.90625 L 1.671875 -1.546875 C 1.609375 -1.578125 1.535156 -1.601562 1.453125 -1.625 C 1.367188 -1.644531 1.273438 -1.65625 1.171875 -1.65625 C 1.097656 -1.65625 1.023438 -1.644531 0.953125 -1.625 C 0.890625 -1.601562 0.832031 -1.566406 0.78125 -1.515625 C 0.726562 -1.460938 0.6875 -1.394531 0.65625 -1.3125 C 0.625 -1.226562 0.609375 -1.128906 0.609375 -1.015625 C 0.609375 -0.921875 0.617188 -0.832031 0.640625 -0.75 C 0.660156 -0.675781 0.691406 -0.609375 0.734375 -0.546875 C 0.785156 -0.492188 0.847656 -0.445312 0.921875 -0.40625 C 0.992188 -0.375 1.082031 -0.359375 1.1875 -0.359375 C 1.257812 -0.359375 1.320312 -0.363281 1.375 -0.375 C 1.425781 -0.382812 1.46875 -0.394531 1.5 -0.40625 C 1.539062 -0.414062 1.578125 -0.425781 1.609375 -0.4375 C 1.640625 -0.445312 1.671875 -0.457031 1.703125 -0.46875 L 1.828125 -0.109375 C 1.765625 -0.0664062 1.671875 -0.03125 1.546875 0 C 1.429688 0.03125 1.300781 0.046875 1.15625 0.046875 Z M 1.15625 0.046875 "/></g></g></g><g fill="#0ba68b" fill-opacity="1"><g transform="translate(102.360922, 18.906324)"><g><path d="M 1.71875 -2.015625 L 1.71875 -1.625 L 1.125 -1.625 L 1.125 0 L 0.671875 0 L 0.671875 -1.625 L 0.0625 -1.625 L 0.0625 -2.015625 Z M 1.71875 -2.015625 "/></g></g></g><g clip-path="url(#62cee4b3c1)"><path fill="#4f4d5e" d="M 33.746094 2.917969 C 31.566406 3.160156 29.558594 4.128906 28.101562 5.652344 C 26.34375 7.347656 25.308594 9.71875 25.308594 12.394531 C 25.308594 14.332031 25.855469 16.21875 26.886719 17.734375 C 27.976562 19.3125 29.496094 20.53125 31.257812 21.257812 L 31.679688 21.5 L 34.839844 25.023438 L 38 21.5 L 38.363281 21.257812 C 40.179688 20.53125 41.703125 19.316406 42.734375 17.734375 C 43.582031 16.460938 44.128906 15.0625 44.308594 13.484375 L 46.5 13.484375 C 46.316406 15.484375 45.648438 17.371094 44.558594 18.949219 C 43.285156 20.765625 41.519531 22.289062 39.460938 23.136719 L 34.84375 28.296875 L 30.230469 23.136719 C 28.167969 22.289062 26.34375 20.765625 25.132812 18.949219 C 23.851562 17.066406 23.125 14.820312 23.125 12.394531 C 23.125 9.171875 24.398438 6.195312 26.527344 4.074219 C 28.40625 2.1875 30.957031 0.976562 33.746094 0.734375 Z M 33.746094 2.917969 " fill-opacity="1" fill-rule="nonzero"/></g><g clip-path="url(#9318411b0c)"><path fill="#86e7b7" d="M 35.9375 0.734375 C 38.730469 0.976562 41.21875 2.1875 43.101562 4.074219 C 44.988281 5.960938 46.257812 8.507812 46.5 11.296875 L 44.316406 11.296875 C 44.074219 9.113281 43.042969 7.105469 41.582031 5.652344 C 40.066406 4.136719 38.121094 3.164062 35.9375 2.917969 Z M 35.9375 0.734375 " fill-opacity="1" fill-rule="nonzero"/></g><path fill="#86e7b7" d="M 34.84375 21.804688 L 36.847656 19.492188 L 37.574219 19.191406 C 40.367188 18.097656 42.1875 15.363281 42.1875 12.394531 C 42.1875 8.324219 38.90625 5.042969 34.839844 5.042969 C 30.769531 5.042969 27.4375 8.324219 27.4375 12.394531 C 27.4375 15.371094 29.316406 18.097656 32.109375 19.191406 L 32.777344 19.492188 Z M 31.078125 11.296875 C 31.6875 11.296875 32.171875 11.78125 32.171875 12.386719 C 32.171875 12.992188 31.6875 13.480469 31.078125 13.480469 C 30.472656 13.480469 29.988281 12.992188 29.988281 12.386719 C 29.984375 11.78125 30.472656 11.296875 31.078125 11.296875 Z M 34.84375 11.296875 C 35.453125 11.296875 35.9375 11.78125 35.9375 12.386719 C 35.9375 12.992188 35.453125 13.480469 34.84375 13.480469 C 34.238281 13.480469 33.753906 12.992188 33.753906 12.386719 C 33.746094 11.78125 34.234375 11.296875 34.84375 11.296875 Z M 38.605469 11.296875 C 39.210938 11.296875 39.695312 11.78125 39.695312 12.386719 C 39.695312 12.992188 39.210938 13.480469 38.605469 13.480469 C 38 13.480469 37.511719 12.992188 37.511719 12.386719 C 37.511719 11.78125 38 11.296875 38.605469 11.296875 Z M 38.605469 11.296875 " fill-opacity="1" fill-rule="nonzero"/></svg>